curl
version=1
nRows=352
nColumns=3
inDegrees=yes
endheader
time	r_shoulder_elev	r_elbow_flex
10.7200	25.156555	116.887075
10.7300	25.125796	116.658459
10.7400	25.092840	116.413875
10.7500	25.057969	116.153591
10.7600	25.021477	115.877926
10.7700	24.983671	115.587241
10.7800	24.944861	115.281928
10.7900	24.905355	114.962408
10.8000	24.865462	114.629114
10.8100	24.825476	114.282488
10.8200	24.785683	113.922969
10.8300	24.746347	113.550988
10.8400	24.707714	113.166956
10.8500	24.670001	112.771261
10.8600	24.633400	112.364260
10.8700	24.598070	111.946274
10.8800	24.564135	111.517586
10.8900	24.531688	111.078436
10.9000	24.500781	110.629022
10.9100	24.471431	110.169500
10.9200	24.443619	109.699983
10.9300	24.417288	109.220549
10.9400	24.392345	108.731240
10.9500	24.368666	108.232066
10.9600	24.346092	107.723016
10.9700	24.324440	107.204054
10.9800	24.303496	106.675134
10.9900	24.283029	106.136201
11.0000	24.262788	105.587199
11.0100	24.242510	105.028077
11.0200	24.221923	104.458797
11.0300	24.200753	103.879338
11.0400	24.178726	103.289704
11.0500	24.155576	102.689931
11.0600	24.131049	102.080087
11.0700	24.104908	101.460283
11.0800	24.076937	100.830675
11.0900	24.046946	100.191467
11.1000	24.014776	99.542915
11.1100	23.980299	98.885330
11.1200	23.943424	98.219078
11.1300	23.904096	97.544586
11.1400	23.862299	96.862333
11.1500	23.818057	96.172857
11.1600	23.771429	95.476751
11.1700	23.722514	94.774659
11.1800	23.671446	94.067271
11.1900	23.618388	93.355320
11.2000	23.563534	92.639572
11.2100	23.507103	91.920822
11.2200	23.449333	91.199882
11.2300	23.390477	90.477572
11.2400	23.330800	89.754709
11.2500	23.270572	89.032097
11.2600	23.210063	88.310511
11.2700	23.149539	87.590690
11.2800	23.089257	86.873321
11.2900	23.029459	86.159027
11.3000	22.970371	85.448361
11.3100	22.912198	84.741790
11.3200	22.855118	84.039693
11.3300	22.799284	83.342347
11.3400	22.744817	82.649932
11.3500	22.691809	81.962521
11.3600	22.640317	81.280084
11.3700	22.590366	80.602485
11.3800	22.541947	79.929491
11.3900	22.495020	79.260771
11.4000	22.449513	78.595908
11.4100	22.405323	77.934399
11.4200	22.362323	77.275673
11.4300	22.320359	76.619093
11.4400	22.279258	75.963972
11.4500	22.238829	75.309580
11.4600	22.198868	74.655162
11.4700	22.159163	73.999944
11.4800	22.119494	73.343150
11.4900	22.079643	72.684017
11.5000	22.039394	72.021803
11.5100	21.998536	71.355807
11.5200	21.956872	70.685377
11.5300	21.914217	70.009928
11.5400	21.870401	69.328949
11.5500	21.825275	68.642021
11.5600	21.778710	67.948819
11.5700	21.730601	67.249125
11.5800	21.680866	66.542835
11.5900	21.629450	65.829963
11.6000	21.576321	65.110642
11.6100	21.521477	64.385133
11.6200	21.464938	63.653817
11.6300	21.406754	62.917196
11.6400	21.346995	62.175894
11.6500	21.285757	61.430642
11.6600	21.223157	60.682280
11.6700	21.159332	59.931745
11.6800	21.094435	59.180055
11.6900	21.028637	58.428306
11.7000	20.962118	57.677652
11.7100	20.895069	56.929295
11.7200	20.827687	56.184469
11.7300	20.760174	55.444429
11.7400	20.692730	54.710429
11.7500	20.625555	53.983718
11.7600	20.558841	53.265521
11.7700	20.492773	52.557026
11.7800	20.427524	51.859377
11.7900	20.363254	51.173660
11.8000	20.300107	50.500895
11.8100	20.238209	49.842031
11.8200	20.177666	49.197936
11.8300	20.118562	48.569394
11.8400	20.060962	47.957101
11.8500	20.004904	47.361660
11.8600	19.950407	46.783584
11.8700	19.897465	46.223288
11.8800	19.846049	45.681094
11.8900	19.796111	45.157229
11.9000	19.747579	44.651825
11.9100	19.700365	44.164921
11.9200	19.654364	43.696465
11.9300	19.609455	43.246316
11.9400	19.565506	42.814251
11.9500	19.522374	42.399963
11.9600	19.479911	42.003075
11.9700	19.437964	41.623139
11.9800	19.396379	41.259650
11.9900	19.355001	40.912048
12.0000	19.313682	40.579732
12.0100	19.272278	40.262065
12.0200	19.230651	39.958382
12.0300	19.188677	39.668003
12.0400	19.146237	39.390237
12.0500	19.103230	39.124392
12.0600	19.059562	38.869782
12.0700	19.015156	38.625736
12.0800	18.969949	38.391604
12.0900	18.923890	38.166761
12.1000	18.876942	37.950612
12.1100	18.829083	37.742597
12.1200	18.780306	37.542194
12.1300	18.730614	37.348916
12.1400	18.680025	37.162317
12.1500	18.628570	36.981984
12.1600	18.576291	36.807542
12.1700	18.523243	36.638646
12.1800	18.469494	36.474979
12.1900	18.415121	36.316250
12.2000	18.360214	36.162187
12.2100	18.304873	36.012536
12.2200	18.249211	35.867057
12.2300	18.193348	35.725516
12.2400	18.137416	35.587689
12.2500	18.081556	35.453353
12.2600	18.025916	35.322286
12.2700	17.970650	35.194267
12.2800	17.915920	35.069069
12.2900	17.861889	34.946462
12.3000	17.808721	34.826213
12.3100	17.756582	34.708082
12.3200	17.705633	34.591826
12.3300	17.656030	34.477197
12.3400	17.607920	34.363946
12.3500	17.561442	34.251821
12.3600	17.516722	34.140574
12.3700	17.473872	34.029959
12.3800	17.432988	33.919741
12.3900	17.394149	33.809691
12.4000	17.357417	33.699597
12.4100	17.322833	33.589266
12.4200	17.290421	33.478524
12.4300	17.260185	33.367227
12.4400	17.232110	33.255259
12.4500	17.206164	33.142540
12.4600	17.182297	33.029026
12.4700	17.160446	32.914718
12.4800	17.140533	32.799662
12.4900	17.122470	32.683952
12.5000	17.106159	32.567737
12.5100	17.091496	32.451221
12.5200	17.078372	32.334669
12.5300	17.066677	32.218410
12.5400	17.056303	32.102839
12.5500	17.047144	31.988421
12.5600	17.039101	31.875697
12.5700	17.032083	31.765282
12.5800	17.026009	31.657876
12.5900	17.020810	31.554259
12.6000	17.016429	31.455299
12.6100	17.012827	31.361950
12.6200	17.009976	31.275257
12.6300	17.007868	31.196353
12.6400	17.006511	31.126461
12.6500	17.005927	31.066889
12.6600	17.006156	31.019031
12.6700	17.007256	30.984364
12.6800	17.009297	30.964439
12.6900	17.012364	30.960877
12.7000	17.016559	30.975364
12.7100	17.021990	31.009638
12.7200	17.028782	31.065486
12.7300	17.037065	31.144727
12.7400	17.046979	31.249204
12.7500	17.058671	31.380769
12.7600	17.072294	31.541270
12.7700	17.088004	31.732540
12.7800	17.105960	31.956377
12.7900	17.126325	32.214532
12.8000	17.149262	32.508692
12.8100	17.174934	32.840470
12.8200	17.203504	33.211385
12.8300	17.235131	33.622853
12.8400	17.269973	34.076172
12.8500	17.308184	34.572512
12.8600	17.349914	35.112905
12.8700	17.395305	35.698239
12.8800	17.444494	36.329250
12.8900	17.497608	37.006515
12.9000	17.554767	37.730454
12.9100	17.616078	38.501327
12.9200	17.681639	39.319232
12.9300	17.751532	40.184107
12.9400	17.825828	41.095734
12.9500	17.904581	42.053744
12.9600	17.987831	43.057619
12.9700	18.075601	44.106698
12.9800	18.167898	45.200185
12.9900	18.264710	46.337156
13.0000	18.366013	47.516562
13.0100	18.471761	48.737237
13.0200	18.581894	49.997906
13.0300	18.696339	51.297187
13.0400	18.815003	52.633600
13.0500	18.937782	54.005567
13.0600	19.064557	55.411420
13.0700	19.195199	56.849407
13.0800	19.329563	58.317686
13.0900	19.467496	59.814339
13.1000	19.608832	61.337363
13.1100	19.753398	62.884681
13.1200	19.901010	64.454134
13.1300	20.051475	66.043487
13.1400	20.204593	67.650430
13.1500	20.360153	69.272574
13.1600	20.517938	70.907453
13.1700	20.677725	72.552528
13.1800	20.839278	74.205186
13.1900	21.002359	75.862743
13.2000	21.166718	77.522448
13.2100	21.332100	79.181488
13.2200	21.498242	80.836991
13.2300	21.664873	82.486037
13.2400	21.831718	84.125668
13.2500	21.998492	85.752893
13.2600	22.164908	87.364704
13.2700	22.330670	88.958089
13.2800	22.495482	90.530045
13.2900	22.659041	92.077594
13.3000	22.821043	93.597799
13.3100	22.981184	95.087780
13.3200	23.139156	96.544729
13.3300	23.294656	97.965929
13.3400	23.447381	99.348769
13.3500	23.597032	100.690758
13.3600	23.743317	101.989545
13.3700	23.885950	103.242931
13.3800	24.024652	104.448888
13.3900	24.159158	105.605571
13.4000	24.289212	106.711335
13.4100	24.414572	107.764746
13.4200	24.535010	108.764599
13.4300	24.650314	109.709927
13.4400	24.760291	110.600009
13.4500	24.864764	111.434384
13.4600	24.963575	112.212853
13.4700	25.056586	112.935486
13.4800	25.143679	113.602618
13.4900	25.224756	114.214856
13.5000	25.299742	114.773066
13.5100	25.368581	115.278372
13.5200	25.431243	115.732144
13.5300	25.487716	116.135984
13.5400	25.538016	116.491714
13.5500	25.582178	116.801356
13.5600	25.620267	117.067112
13.5700	25.652369	117.291348
13.5800	25.678598	117.476565
13.5900	25.699096	117.625379
13.6000	25.714031	117.740499
13.6100	25.723598	117.824697
13.6200	25.728023	117.880788
13.6300	25.727556	117.911606
13.6400	25.722478	117.919979
13.6500	25.713092	117.908707
13.6600	25.699729	117.880543
13.6700	25.682741	117.838168
13.6800	25.662500	117.784177
13.6900	25.639395	117.721060
13.7000	25.613826	117.651187
13.7100	25.586205	117.576792
13.7200	25.556946	117.499965
13.7300	25.526463	117.422635
13.7400	25.495165	117.346567
13.7500	25.463451	117.273351
13.7600	25.431704	117.204397
13.7700	25.400286	117.140929
13.7800	25.369536	117.083985
13.7900	25.339762	117.034412
13.8000	25.311242	116.992868
13.8100	25.284215	116.959822
13.8200	25.258881	116.935557
13.8300	25.235401	116.920173
13.8400	25.213890	116.913592
13.8500	25.194421	116.915567
13.8600	25.177023	116.925686
13.8700	25.161681	116.943384
13.8800	25.148339	116.967952
13.8900	25.136900	116.998548
13.9000	25.127231	117.034211
13.9100	25.119164	117.073870
13.9200	25.112501	117.116364
13.9300	25.107021	117.160455
13.9400	25.102480	117.204838
13.9500	25.098618	117.248164
13.9600	25.095168	117.289052
13.9700	25.091853	117.326102
13.9800	25.088401	117.357917
13.9900	25.084544	117.383111
14.0000	25.080022	117.400325
14.0100	25.074594	117.408245
14.0200	25.068037	117.405606
14.0300	25.060152	117.391212
14.0400	25.050766	117.363940
14.0500	25.039736	117.322752
14.0600	25.026953	117.266703
14.0700	25.012339	117.194944
14.0800	24.995850	117.106735
14.0900	24.977480	117.001440
14.1000	24.957253	116.878535
14.1100	24.935228	116.737612
14.1200	24.911494	116.578372
14.1300	24.886169	116.400631
14.1400	24.859397	116.204316
14.1500	24.831342	115.989461
14.1600	24.802190	115.756204
14.1700	24.772139	115.504780
14.1800	24.741396	115.235520
14.1900	24.710177	114.948836
14.2000	24.678695	114.645221
14.2100	24.647162	114.325236
14.2200	24.615782	113.989505
14.2300	24.584743	113.638702
